<svg width="20" height="20" viewBox="0 0 20 20" fill="none" xmlns="http://www.w3.org/2000/svg">
<path d="M10.295 10.8691C10.2563 10.9079 10.2103 10.9387 10.1597 10.9597C10.1091 10.9807 10.0548 10.9915 9.99999 10.9915C9.94518 10.9915 9.89091 10.9807 9.84029 10.9597C9.78967 10.9387 9.74369 10.9079 9.70499 10.8691L5.88415 7.04744C5.64977 6.81294 5.33183 6.68116 5.00028 6.68108C4.66873 6.681 4.35073 6.81263 4.11623 7.04702C3.88174 7.2814 3.74996 7.59934 3.74988 7.93089C3.7498 8.26244 3.88143 8.58044 4.11582 8.81494L7.93748 12.6366C8.48501 13.1826 9.22672 13.4893 9.99999 13.4893C10.7732 13.4893 11.515 13.1826 12.0625 12.6366L15.8842 8.81494C16.1185 8.58044 16.2502 8.26244 16.2501 7.93089C16.25 7.59934 16.1182 7.2814 15.8837 7.04702C15.6492 6.81263 15.3312 6.681 14.9997 6.68108C14.6681 6.68116 14.3502 6.81294 14.1158 7.04744L10.295 10.8691Z" fill="#5A6074"/>
</svg>
