<svg width="20" height="20" viewBox="0 0 20 20" fill="none" xmlns="http://www.w3.org/2000/svg">
<path d="M9.70489 9.1309C9.7436 9.09209 9.78958 9.06131 9.8402 9.0403C9.89082 9.0193 9.94509 9.00849 9.99989 9.00849C10.0547 9.00849 10.109 9.0193 10.1596 9.0403C10.2102 9.06131 10.2562 9.09209 10.2949 9.1309L14.1157 12.9526C14.3501 13.1871 14.6681 13.3188 14.9996 13.3189C15.3311 13.319 15.6491 13.1874 15.8836 12.953C16.1181 12.7186 16.2499 12.4007 16.25 12.0691C16.2501 11.7376 16.1184 11.4196 15.8841 11.1851L12.0624 7.3634C11.5149 6.81737 10.7732 6.51074 9.99989 6.51074C9.22663 6.51074 8.48492 6.81737 7.93739 7.3634L4.11572 11.1851C3.88134 11.4196 3.74971 11.7376 3.74978 12.0691C3.74986 12.4007 3.88165 12.7186 4.11614 12.953C4.35064 13.1874 4.66864 13.319 5.00019 13.3189C5.33173 13.3188 5.64967 13.1871 5.88406 12.9526L9.70489 9.1309Z" fill="#5A6074"/>
</svg>
