<svg width="60" height="60" viewBox="0 0 60 60" fill="none" xmlns="http://www.w3.org/2000/svg">
<g clip-path="url(#clip0_2_475)">
<path d="M50 20C50.0019 16.2044 48.9238 12.4867 46.8915 9.28102C44.8593 6.07538 41.9568 3.5142 38.5231 1.8967C35.0895 0.2792 31.2664 -0.327844 27.5006 0.146484C23.7348 0.620813 20.1817 2.15693 17.2564 4.57538C14.3311 6.99384 12.1544 10.1948 10.9805 13.8043C9.80667 17.4137 9.68414 21.2827 10.6272 24.9593C11.5704 28.6358 13.5402 31.968 16.3066 34.5668C19.073 37.1655 22.5217 38.9233 26.25 39.635V45H22.5C21.5054 45 20.5516 45.3951 19.8483 46.0984C19.1451 46.8016 18.75 47.7555 18.75 48.75C18.75 49.7446 19.1451 50.6984 19.8483 51.4017C20.5516 52.1049 21.5054 52.5 22.5 52.5H26.25V56.25C26.25 57.2446 26.6451 58.1984 27.3483 58.9017C28.0516 59.6049 29.0054 60 30 60C30.9946 60 31.9484 59.6049 32.6516 58.9017C33.3549 58.1984 33.75 57.2446 33.75 56.25V52.5H37.5C38.4946 52.5 39.4484 52.1049 40.1516 51.4017C40.8549 50.6984 41.25 49.7446 41.25 48.75C41.25 47.7555 40.8549 46.8016 40.1516 46.0984C39.4484 45.3951 38.4946 45 37.5 45H33.75V39.635C38.3172 38.7583 42.4369 36.3193 45.402 32.7365C48.3671 29.1537 49.9928 24.6506 50 20ZM17.5 20C17.5 17.5277 18.2331 15.111 19.6066 13.0554C20.9801 10.9998 22.9324 9.39759 25.2165 8.4515C27.5005 7.5054 30.0139 7.25786 32.4386 7.74018C34.8634 8.22249 37.0907 9.413 38.8388 11.1612C40.587 12.9093 41.7775 15.1366 42.2598 17.5614C42.7421 19.9861 42.4946 22.4995 41.5485 24.7835C40.6024 27.0676 39.0002 29.0199 36.9446 30.3934C34.889 31.7669 32.4723 32.5 30 32.5C26.686 32.496 23.5089 31.1778 21.1655 28.8345C18.8222 26.4911 17.504 23.314 17.5 20Z" fill="#58cbe0"/>
</g>
<defs>
<clipPath id="clip0_2_475">
<rect width="60" height="60" fill="white"/>
</clipPath>
</defs>
</svg>
