<svg width="600" height="600" viewBox="0 0 600 600" fill="none" xmlns="http://www.w3.org/2000/svg">
<g clip-path="url(#clip0_31_54)">
<rect width="600" height="600" fill="#58CBE0"/>
<circle cx="300" cy="300" r="200" fill="#E4EBF5"/>
<path d="M342.088 242.088V258.755H301.146L316.146 229.196L301.28 221.646L282.438 258.755H258.755V242.088C258.755 231.037 263.145 220.439 270.959 212.625C278.773 204.811 289.371 200.421 300.421 200.421C311.472 200.421 322.07 204.811 329.884 212.625C337.698 220.439 342.088 231.037 342.088 242.088V242.088ZM375.421 217.088H353.046C356.792 224.891 358.742 233.433 358.755 242.088V275.421H242.088V242.088C242.1 233.433 244.051 224.891 247.796 217.088H225.421C218.791 217.088 212.432 219.722 207.744 224.41C203.055 229.099 200.421 235.458 200.421 242.088V400.421H400.421V242.088C400.421 235.458 397.787 229.099 393.099 224.41C388.411 219.722 382.052 217.088 375.421 217.088Z" fill="#58CBE0"/>
</g>
<defs>
<clipPath id="clip0_31_54">
<rect width="600" height="600" fill="white"/>
</clipPath>
</defs>
</svg>
